<?xml version="1.0" encoding="utf-8"?>
<!-- Generator: Adobe Illustrator 22.1.0, SVG Export Plug-In . SVG Version: 6.00 Build 0)  -->
<svg version="1.1" id="Ebene_1" xmlns="http://www.w3.org/2000/svg" xmlns:xlink="http://www.w3.org/1999/xlink" x="0px" y="0px"
	 viewBox="0 0 100 100" style="enable-background:new 0 0 100 100;" xml:space="preserve">
<style type="text/css">
	.st0{fill:#FAC47F;}
	.st1{fill:#1D1D1B;}
</style>
<polygon class="st0" points="0,0 0,100 100,100 100,0 0,0 "/>
<path class="st1" d="M34.4,47.2h10.1l1.7,5.6h6.2l-9.6-27.3h-6.6l-9.7,27.3h6L34.4,47.2L34.4,47.2z M39.4,31.7L39.4,31.7l3.5,10.8
	h-7L39.4,31.7L39.4,31.7z M55.8,34.2h6.4v18.6h5.3v-27h-4.4c-0.1,2-1.5,4.7-6.6,4.7h-0.8V34.2L55.8,34.2z"/>
<path class="st1" d="M42.7,84.5v-1.3H32.6l10-13.1v-1.2h-11v1.3h9.2l-10,13.1v1.2H42.7L42.7,84.5z M45.2,84.5l1.8-4.9h7.1l1.8,4.9
	h1.5l-6-15.6h-1.7l-6.1,15.6H45.2L45.2,84.5z M50.6,70.1l3.1,8.2h-6.1L50.6,70.1L50.6,70.1z M64.4,84.5h1.4V69.2h-1.1
	c-0.5,2.6-1.9,2.9-4.2,3v0.9h4V84.5L64.4,84.5z"/>
</svg>
