<svg width="20" height="11" viewBox="0 0 20 11" fill="none" xmlns="http://www.w3.org/2000/svg">
<path fill-rule="evenodd" clip-rule="evenodd" d="M0.468998 0.48841C0.538667 0.418566 0.62143 0.363151 0.712548 0.325341C0.803665 0.287532 0.901347 0.26807 0.999998 0.26807C1.09865 0.26807 1.19633 0.287532 1.28745 0.325341C1.37857 0.363151 1.46133 0.418566 1.531 0.48841L10 8.95891L18.469 0.48841C18.5387 0.418679 18.6215 0.363364 18.7126 0.325625C18.8037 0.287887 18.9014 0.268463 19 0.268463C19.0986 0.268463 19.1963 0.287887 19.2874 0.325625C19.3785 0.363364 19.4613 0.418679 19.531 0.48841C19.6007 0.558142 19.656 0.640926 19.6938 0.732035C19.7315 0.823144 19.7509 0.920795 19.7509 1.01941C19.7509 1.11803 19.7315 1.21568 19.6938 1.30679C19.656 1.3979 19.6007 1.48068 19.531 1.55041L10.531 10.5504C10.4613 10.6203 10.3786 10.6757 10.2874 10.7135C10.1963 10.7513 10.0986 10.7708 10 10.7708C9.90135 10.7708 9.80367 10.7513 9.71255 10.7135C9.62143 10.6757 9.53867 10.6203 9.469 10.5504L0.468998 1.55041C0.399153 1.48074 0.343739 1.39798 0.305929 1.30686C0.26812 1.21574 0.248657 1.11806 0.248657 1.01941C0.248657 0.92076 0.26812 0.823078 0.305929 0.73196C0.343739 0.640842 0.399153 0.558079 0.468998 0.48841Z" fill="#2A2A2E"/>
</svg>
