<svg width="113" height="36" viewBox="0 0 113 36" fill="none" xmlns="http://www.w3.org/2000/svg">
<g clip-path="url(#clip0_2506_6732)">
<path d="M0.166016 0.523438V35.7314H112.66V0.523438H0.166016Z" fill="#FFF49A"/>
<path d="M25.2762 24.5209H32.6484L33.8892 28.6085H38.4148L31.4075 8.68164H26.59L19.5098 28.6085H23.8893L25.2762 24.5209ZM28.9258 13.2072L31.4805 21.0903H26.444L28.9258 13.2072ZM43.6702 15.8349C43.6702 14.375 43.8162 12.1123 46.5169 12.1123C48.4147 12.1123 49.2176 13.6451 49.2176 14.886C49.2176 17.0757 47.8307 18.0976 44.2541 20.6524C40.0206 23.791 39.8016 26.1998 39.6556 28.4625H53.0862V25.0319H44.6191C45.057 24.083 46.4439 23.2071 48.9986 21.3823C50.8964 20.0684 53.0862 18.3896 53.0862 14.959C53.0862 10.9444 50.0935 8.75463 46.2979 8.75463C44.5461 8.75463 39.8746 9.33857 39.8746 15.6889H43.6702V15.8349Z" fill="#1D1D1B"/>
<path d="M73.7955 24.3389V23.39H66.4232L73.7225 13.8281V12.9521H65.6933V13.901H72.4086L65.1094 23.463V24.3389H73.7955ZM75.6203 24.3389L76.9341 20.7623H82.1166L83.4304 24.3389H84.5253L80.1458 12.9521H78.9049L74.4524 24.3389H75.6203ZM79.5618 13.8281L81.8246 19.8134H77.3721L79.5618 13.8281ZM87.007 16.8207C86.934 15.2879 87.9559 14.047 89.4158 14.047C90.8026 14.047 91.8975 14.9229 91.8975 16.3098C91.8975 18.9375 88.8318 18.9375 86.4961 21.6382C85.7662 22.4411 85.6202 23.317 85.6202 24.3389H92.9194V23.463H86.7151C86.7881 22.3681 87.445 21.7842 88.1749 21.2003C89.8537 19.9594 93.0654 19.1565 93.0654 16.2368C93.0654 14.558 91.8975 13.1711 89.6348 13.1711C87.445 13.1711 85.9852 14.631 85.9852 16.8207H87.007Z" fill="#1D1D1B"/>
</g>
<defs>
<clipPath id="clip0_2506_6732">
<rect width="112.494" height="35.208" fill="white" transform="translate(0.166016 0.523438)"/>
</clipPath>
</defs>
</svg>
