<svg width="24" height="25" viewBox="0 0 24 25" fill="none" xmlns="http://www.w3.org/2000/svg">
<g id="delete-bin-2-fill 1">
<path id="Vector" d="M7 6.66504V3.66504C7 3.11276 7.44772 2.66504 8 2.66504H16C16.5523 2.66504 17 3.11276 17 3.66504V6.66504H22V8.66504H20V21.665C20 22.2173 19.5523 22.665 19 22.665H5C4.44772 22.665 4 22.2173 4 21.665V8.66504H2V6.66504H7ZM13.4142 14.6647L15.182 12.897L13.7678 11.4828L12 13.2505L10.2322 11.4828L8.81802 12.897L10.5858 14.6647L8.81802 16.4325L10.2322 17.8467L12 16.0789L13.7678 17.8467L15.182 16.4325L13.4142 14.6647ZM9 4.66504V6.66504H15V4.66504H9Z" fill="#F44336"/>
</g>
</svg>
