<svg width="86" height="85" viewBox="0 0 86 85" fill="none" xmlns="http://www.w3.org/2000/svg">
<g id="icon-ZA2" clip-path="url(#clip0_2444_2903)">
<path id="Vector" d="M0.46875 0V85H85.4688V0H0.46875Z" fill="#FFF49A"/>
<path id="Vector_2" d="M29.7091 40.1198H38.2941L39.7391 44.8798H45.0091L36.8491 21.6748H31.2391L22.9941 44.8798H28.0941L29.7091 40.1198ZM33.9591 26.9448L36.9341 36.1248H31.0691L33.9591 26.9448ZM51.1291 30.0048C51.1291 28.3048 51.2991 25.6698 54.4441 25.6698C56.6541 25.6698 57.5891 27.4548 57.5891 28.8998C57.5891 31.4498 55.9741 32.6398 51.8091 35.6148C46.8791 39.2698 46.6241 42.0748 46.4541 44.7098H62.0941V40.7148H52.2341C52.7441 39.6098 54.3591 38.5898 57.3341 36.4648C59.5441 34.9348 62.0941 32.9798 62.0941 28.9848C62.0941 24.3098 58.6091 21.7598 54.1891 21.7598C52.1491 21.7598 46.7091 22.4398 46.7091 29.8348H51.1291V30.0048Z" fill="#1D1D1B"/>
<path id="Vector_3" d="M36.7634 71.8254V70.7204H28.1784L36.6784 59.5854V58.5654H27.3284V59.6704H35.1484L26.6484 70.8054V71.8254H36.7634ZM38.8884 71.8254L40.4184 67.6604H46.4534L47.9834 71.8254H49.2584L44.1584 58.5654H42.7134L37.5284 71.8254H38.8884ZM43.4784 59.5854L46.1134 66.5554H40.9284L43.4784 59.5854ZM52.1484 63.0704C52.0634 61.2854 53.2534 59.8404 54.9534 59.8404C56.5684 59.8404 57.8434 60.8604 57.8434 62.4754C57.8434 65.5354 54.2734 65.5354 51.5534 68.6804C50.7034 69.6154 50.5334 70.6354 50.5334 71.8254H59.0334V70.8054H51.8084C51.8934 69.5304 52.6584 68.8504 53.5084 68.1704C55.4634 66.7254 59.2034 65.7904 59.2034 62.3904C59.2034 60.4354 57.8434 58.8204 55.2084 58.8204C52.6584 58.8204 50.9584 60.5204 50.9584 63.0704H52.1484Z" fill="#1D1D1B"/>
</g>
<defs>
<clipPath id="clip0_2444_2903">
<rect width="85" height="85" fill="white" transform="translate(0.46875)"/>
</clipPath>
</defs>
</svg>
