<svg width="25" height="25" viewBox="0 0 25 25" fill="none" xmlns="http://www.w3.org/2000/svg">
<path d="M12.22 24.44C15.4609 24.44 18.5692 23.1525 20.8608 20.8608C23.1525 18.5692 24.44 15.4609 24.44 12.22C24.44 8.97905 23.1525 5.87085 20.8608 3.57916C18.5692 1.28746 15.4609 0 12.22 0C8.97905 0 5.87085 1.28746 3.57916 3.57916C1.28746 5.87085 0 8.97905 0 12.22C0 15.4609 1.28746 18.5692 3.57916 20.8608C5.87085 23.1525 8.97905 24.44 12.22 24.44ZM13.6406 10.0632L12.1131 17.2501C12.0061 17.7694 12.1574 18.0642 12.5774 18.0642C12.8738 18.0642 13.3213 17.9573 13.6253 17.6885L13.4909 18.3239C13.0525 18.8524 12.0856 19.2373 11.2531 19.2373C10.1793 19.2373 9.72254 18.5927 10.0189 17.2226L11.1462 11.9252C11.2439 11.4776 11.1553 11.3157 10.7078 11.2073L10.0189 11.0835L10.1441 10.5016L13.6421 10.0632H13.6406ZM12.22 8.40125C11.8149 8.40125 11.4264 8.24032 11.1399 7.95386C10.8534 7.66739 10.6925 7.27887 10.6925 6.87375C10.6925 6.46863 10.8534 6.08011 11.1399 5.79364C11.4264 5.50718 11.8149 5.34625 12.22 5.34625C12.6251 5.34625 13.0136 5.50718 13.3001 5.79364C13.5866 6.08011 13.7475 6.46863 13.7475 6.87375C13.7475 7.27887 13.5866 7.66739 13.3001 7.95386C13.0136 8.24032 12.6251 8.40125 12.22 8.40125Z" fill="url(#paint0_linear_347_48)"/>
<defs>
<linearGradient id="paint0_linear_347_48" x1="0" y1="0" x2="24.44" y2="24.44" gradientUnits="userSpaceOnUse">
<stop stop-color="#4C83FF"/>
<stop offset="1" stop-color="#7367F0"/>
</linearGradient>
</defs>
</svg>
