<svg width="12" height="7" viewBox="0 0 12 7" fill="none" xmlns="http://www.w3.org/2000/svg">
<rect width="12" height="7" fill="#E5E5E5"/>
<g id="Step 1" clip-path="url(#clip0_301_787)">
<rect width="1600" height="1950" transform="translate(-582 -740)" fill="#F4F4F4"/>
<rect id="Rectangle 26" x="-352" y="-331" width="1139" height="1174.66" fill="white"/>
<g id="Group 210">
<g id="Frame 1033">
<g id="Frame 1032">
<g id="Frame 1029">
<g id="Frame 1028">
<g id="Frame 1015">
<g id="Frame 967">
<rect x="-41.4697" y="-21.3055" width="77.9397" height="50" rx="5" fill="white"/>
<rect x="-41.4697" y="-21.3055" width="77.9397" height="50" rx="5" stroke="#DEE2E6" stroke-width="2"/>
<path id="Vector" d="M6.00011 4.4449L2.2888 0.733593C1.88668 0.331478 1.23398 0.331478 0.83186 0.733593C0.429745 1.13571 0.429745 1.78842 0.83186 2.19053L5.31341 6.67208C5.69318 7.05185 6.30801 7.05185 6.68681 6.67208L11.1684 2.19053C11.5705 1.78842 11.5705 1.13571 11.1684 0.733593C10.7662 0.331478 10.1135 0.331478 9.71142 0.733593L6.00011 4.4449Z" fill="black"/>
</g>
</g>
</g>
</g>
</g>
</g>
</g>
</g>
<defs>
<clipPath id="clip0_301_787">
<rect width="1600" height="1950" fill="white" transform="translate(-582 -740)"/>
</clipPath>
</defs>
</svg>
